<svg xmlns="http://www.w3.org/2000/svg" viewBox="0 0 1200 340" width="1200" height="340" font-family="'JetBrains Mono','SFMono-Regular',ui-monospace,monospace">
  <rect width="1200" height="340" fill="#FAFAFA"/>
  <rect x="0.5" y="0.5" width="1199" height="339" fill="none" stroke="#E2E2E2"/>
  <text x="600" y="78" text-anchor="middle" fill="#0A0A0A" font-size="40" letter-spacing="10">t i m e · r u p t u r e · i n f e r e n c e</text>
  <text x="600" y="116" text-anchor="middle" fill="#8A8A8A" font-size="16" letter-spacing="3">a learned temporal model that survives a hidden regime change — or fails loudly</text>

  <line x1="120" y1="300" x2="1080" y2="300" stroke="#D5D5D5" stroke-width="1"/>
  <line x1="120" y1="170" x2="120" y2="300" stroke="#D5D5D5" stroke-width="1"/>

  <line x1="600" y1="160" x2="600" y2="305" stroke="#D70026" stroke-width="1.5" stroke-dasharray="4 5"/>
  <text x="600" y="328" text-anchor="middle" fill="#D70026" font-size="13" letter-spacing="2">T*  hidden rupture</text>

  <path d="M120 262 H600 V206 H1080" fill="none" stroke="#0A4FCF" stroke-width="2"/>
  <text x="150" y="252" fill="#0A4FCF" font-size="12">τ₀</text>
  <text x="1040" y="196" fill="#0A4FCF" font-size="12">τ₁</text>

  <path d="M120 262 H1080" fill="none" stroke="#9A9A9A" stroke-width="1.5" stroke-dasharray="2 4"/>
  <text x="980" y="276" fill="#8A8A8A" font-size="12">injected → fails</text>

  <path d="M120 262 H600 C 624 262 628 188 648 188 C 690 188 740 210 820 208 C 920 206 1000 207 1080 207" fill="none" stroke="#00A848" stroke-width="2.25"/>
  <text x="660" y="178" fill="#00A848" font-size="12">learned → adapts</text>
</svg>
