<svg xmlns="http://www.w3.org/2000/svg" viewBox="0 0 1200 340" width="1200" height="340" font-family="'JetBrains Mono','SFMono-Regular',ui-monospace,monospace">
  <rect width="1200" height="340" fill="#FAFAFA"/>
  <rect x="0.5" y="0.5" width="1199" height="339" fill="none" stroke="#E2E2E2"/>

  <text x="600" y="74" text-anchor="middle" fill="#0A0A0A" font-size="34" letter-spacing="7">time rupture inference</text>
  <text x="600" y="108" text-anchor="middle" fill="#8A8A8A" font-size="13" letter-spacing="2">prediction-error temporal adaptation · falsification-first · reproducible</text>

  <line x1="180" y1="292" x2="1020" y2="292" stroke="#D8D8D8" stroke-width="1"/>
  <line x1="180" y1="174" x2="180" y2="292" stroke="#D8D8D8" stroke-width="1"/>

  <line x1="600" y1="156" x2="600" y2="298" stroke="#D70026" stroke-width="1.25" stroke-dasharray="3 6"/>
  <text x="600" y="322" text-anchor="middle" fill="#D70026" font-size="12" letter-spacing="1.5">T* hidden rupture</text>

  <path d="M180 258 H600 V206 H1020" fill="none" stroke="#0A4FCF" stroke-width="1.8"/>
  <text x="210" y="248" fill="#0A4FCF" font-size="11">τ₀</text>
  <text x="982" y="196" fill="#0A4FCF" font-size="11">τ₁</text>

  <path d="M180 258 H1020" fill="none" stroke="#9A9A9A" stroke-width="1.2" stroke-dasharray="2 5"/>
  <text x="918" y="272" fill="#8A8A8A" font-size="11">injected → fails</text>

  <path d="M180 258 H600 C 624 258 628 188 648 188 C 690 188 740 208 820 207 C 920 206 980 206 1020 206" fill="none" stroke="#00A848" stroke-width="2"/>
  <text x="656" y="178" fill="#00A848" font-size="11">learned → adapts</text>
</svg>
